<svg width="298" height="599" viewBox="0 0 298 599" fill="none" xmlns="http://www.w3.org/2000/svg">
<path d="M266.8 0.900024L204.6 63.1C183.5 48 157.7 39.2 129.8 39.2C58.6 39.2 0.699951 97.1 0.699951 168.3C0.699951 232.2 47.3 285.3 108.3 295.6V342.3C47.3 352.6 0.699951 405.7 0.699951 469.6C0.699951 540.8 58.6 598.7 129.8 598.7C201 598.7 258.9 540.8 258.9 469.6C258.9 405.7 212.3 352.6 151.3 342.3V295.6C212.3 285.3 258.9 232.2 258.9 168.3C258.9 140.5 250 114.7 235 93.5L297.2 31.3L266.8 0.900024ZM215.9 469.7C215.9 517.2 177.3 555.8 129.8 555.8C82.3 555.8 43.7 517.2 43.7 469.7C43.7 422.2 82.3 383.6 129.8 383.6C177.3 383.6 215.9 422.2 215.9 469.7ZM129.8 254.4C82.3 254.4 43.7 215.8 43.7 168.3C43.7 120.8 82.3 82.2 129.8 82.2C177.3 82.2 215.9 120.8 215.9 168.3C215.9 215.8 177.3 254.4 129.8 254.4Z" fill="white"/>
</svg>
